<?xml version="1.0" encoding="UTF-8"?>
<!DOCTYPE svg PUBLIC "-//W3C//DTD SVG 1.1//EN" "http://www.w3.org/Graphics/SVG/1.1/DTD/svg11.dtd">
<!-- Creator: CorelDRAW -->
<svg xmlns="http://www.w3.org/2000/svg" xml:space="preserve" width="6.82666in" height="6.82666in" style="shape-rendering:geometricPrecision; text-rendering:geometricPrecision; image-rendering:optimizeQuality; fill-rule:evenodd; clip-rule:evenodd"
viewBox="0 0 6.82666 6.82666"
 xmlns:xlink="http://www.w3.org/1999/xlink">
 <defs>
  <style type="text/css">
   <![CDATA[
    .fil2 {fill:none}
    .fil0 {fill:#8BC34A}
    .fil1 {fill:#FFFFFE;fill-rule:nonzero}
   ]]>
  </style>
 </defs>
 <g id="Layer_x0020_1">
  <metadata id="CorelCorpID_0Corel-Layer"/>
  <rect class="fil0" width="6.82666" height="6.82666"/>
  <path class="fil1" d="M3.35451 5.98174c-0.0427756,1.9685e-005 -0.105752,0.00129528 -0.178756,0.00276378 -0.274961,0.00555512 -0.687945,0.0138937 -0.822394,-0.0330591 -0.183016,-0.0639528 -0.28911,-0.209402 -0.390587,-0.348524 -0.020874,-0.0286299 0.029063,0.0399331 -0.0193898,-0.0261102 -0.242106,-0.329854 -0.390642,-0.793843 -0.468437,-1.28162 -0.0946693,-0.593547 -0.0851024,-1.22612 -0.0122992,-1.69145 0.0418622,-0.267575 0.16015,-0.760469 0.35513,-1.1503 0.137543,-0.274984 0.315638,-0.502402 0.538165,-0.579882 0.13472,-0.0469252 0.551102,-0.0365591 0.827016,-0.0296929 0.0783189,0.00194882 0.145024,0.00361417 0.186913,0.00363386 0.0277598,1.5748e-005 0.0537598,0.00287402 0.0779331,0.00825984 0.0760472,0.0169291 0.133543,0.0572087 0.172354,0.112457 0.0368228,0.0524094 0.0552126,0.117004 0.0551732,0.186217 -1.5748e-005,0.029626 -0.0034252,0.0600709 -0.0102283,0.0906142l-0.103752 -0.0229173 0.104114 0.0231929c-0.00124409,0.00559449 -0.00291339,0.0109803 -0.00495669,0.0161457l-0.303839 0.979323 5.51181e-005 1.5748e-005 -0.00080315 0.00279921 0.000181102 5.51181e-005c-0.000531496,0.00170866 -0.00110236,0.00338976 -0.00170866,0.00505118 -0.0229213,0.0743465 -0.0708071,0.13424 -0.131232,0.176268 -0.0638937,0.0444331 -0.143118,0.068937 -0.221354,0.0688622 -0.0206181,-7.87402e-006 -0.0430945,-0.00104331 -0.0692795,-0.00223622 -0.0795079,-0.00363386 -0.200295,-0.00915354 -0.225339,-0.00197244 -0.0558858,0.0884291 -0.0937992,0.210827 -0.119165,0.342374 -0.0389094,0.201776 -0.0474646,0.420618 -0.045815,0.579421l0.000413386 -3.93701e-006c3.93701e-005,0.00392126 -0.000133858,0.00779134 -0.000507874,0.0116063 -0.00114173,0.121185 0.00253543,0.249969 0.0157087,0.377906 0.0132047,0.128248 0.0359921,0.25463 0.0731732,0.369634 0.0110315,0.0340906 0.0217598,0.0633898 0.0321614,0.0878583 0.00882283,0.0207559 0.016811,0.0365 0.0239331,0.0471969 0.0342362,0.0514094 0.12176,0.0426772 0.220244,0.0328504 0.046311,-0.00462205 0.0943661,-0.00942126 0.146823,-0.00984646l-3.93701e-006 -0.000413386c0.00524016,-4.33071e-005 0.0103937,0.00030315 0.0154331,0.000992126 0.0458819,0.00362992 0.0890197,0.0144961 0.129378,0.0325984 0.0429685,0.0192795 0.0818701,0.0463386 0.116681,0.081189 0.0789016,0.0789882 0.0924606,0.133161 0.113701,0.218063 0.00781496,0.0312441 -0.00449213,-0.0159488 0.00518898,0.0217835l0.230563 0.898043 0.000440945 -0.000114173c0.000720472,0.00280315 0.0013189,0.00561024 0.00180315,0.00841732 0.00602362,0.027685 0.00897244,0.055748 0.00895669,0.0836693 -3.93701e-005,0.0710315 -0.0204606,0.136311 -0.0589921,0.188728 -0.0400433,0.0544882 -0.0979724,0.0940906 -0.171307,0.111291 -0.024811,0.00581496 -0.0521496,0.0088937 -0.0819449,0.00887795l0 -0.106252 -5.90551e-005 0.106665c-0.00320079,0 -0.0063622,-0.000153543 -0.00948819,-0.000429134zm-0.182921 -0.20974c0.0736417,-0.00148425 0.137142,-0.00276772 0.183331,-0.00276772 0.00303543,-0.000255906 0.00609843,-0.000393701 0.00919685,-0.000393701l0 0.000413386 0.000358268 0c0.0113898,-2.75591e-005 0.0224961,-0.00137402 0.0331969,-0.00387795 0.0214606,-0.0050315 0.037626,-0.0155472 0.0479685,-0.029622 0.0118543,-0.0161299 0.0181457,-0.0378898 0.0181575,-0.0628937 3.93701e-006,-0.011063 -0.00142126,-0.0234409 -0.00433071,-0.0369764l-0.000555118 -0.00205512 9.84252e-005 -2.3622e-005 -0.000535433 -0.00233858 0.000283465 -6.69291e-005 -0.230055 -0.896051c-0.00312992,-0.012189 -0.00491339,-0.0190748 -0.00585827,-0.0226614l-0.000137795 3.54331e-005c0.000795276,0.00327559 0.00167717,0.00682677 -2.75591e-005,7.87402e-006 -0.0125906,-0.0503346 -0.0206339,-0.0824606 -0.0578661,-0.119732 -0.016248,-0.0162638 -0.0337598,-0.0286102 -0.0525157,-0.0370236 -0.0186142,-0.00834646 -0.0394016,-0.0132756 -0.0623307,-0.0147638 -0.0390669,0.000677165 -0.0811614,0.00488583 -0.121795,0.00893701 -0.165827,0.0165472 -0.313185,0.0312559 -0.418583,-0.127016 -0.0141299,-0.0212244 -0.0282283,-0.0483583 -0.0422638,-0.0813701 -0.0124606,-0.0293071 -0.0254094,-0.0647126 -0.0388307,-0.106189 -0.0421614,-0.130406 -0.067752,-0.271307 -0.0823386,-0.412965 -0.0139409,-0.135394 -0.0177913,-0.272496 -0.0165394,-0.401846 -0.000177165,-0.00234252 -0.000291339,-0.00470472 -0.000314961,-0.00709055l0.000389764 -3.93701e-006 1.1811e-005 -0.0011811c-0.00174803,-0.170059 0.0074685,-0.404272 0.0491575,-0.620476 0.0310118,-0.160819 0.0803268,-0.313732 0.156815,-0.429118 0.00458268,-0.00794488 0.0102638,-0.0154291 0.017063,-0.0222205l0.0753858 0.0754646 -0.075 -0.0754173c0.0759724,-0.0758976 0.266461,-0.0671969 0.388571,-0.0616142 0.0262402,0.00119685 0.048811,0.00223228 0.0601142,0.00223622 0.0349094,3.14961e-005 0.0705945,-0.011126 0.099685,-0.0313583 0.0227559,-0.0158268 0.0405591,-0.0370591 0.048874,-0.0622362 0.000574803,-0.00243701 0.00122835,-0.00487008 0.00198031,-0.00729528l0.000295276 9.05512e-005 0.306028 -0.986382c0.00276772,-0.0138071 0.00415354,-0.0271339 0.00415748,-0.0397244 1.1811e-005,-0.0255433 -0.00559843,-0.0477205 -0.0168346,-0.0637126 -0.00924803,-0.0131654 -0.023878,-0.0229724 -0.0440236,-0.0274567 -0.00953543,-0.00212205 -0.0202323,-0.00325591 -0.0320984,-0.00325984 -0.0470118,-2.3622e-005 -0.113654,-0.00168898 -0.191913,-0.00363386 -0.260476,-0.00648425 -0.653567,-0.0162677 -0.752016,0.0180236 -0.162382,0.0565394 -0.303067,0.243937 -0.418165,0.474047 -0.183602,0.367083 -0.295406,0.833909 -0.33513,1.0878 -0.0698307,0.446346 -0.0788465,1.05414 0.0122992,1.62561 0.0729252,0.45724 0.209618,0.88872 0.430106,1.18912 0.0355472,0.0484528 -0.014437,-0.0194449 0.0193898,0.0269449 0.082189,0.112677 0.168114,0.230476 0.288917,0.272689 0.098811,0.0345079 0.488661,0.0266339 0.748228,0.0213898zm0.0512559 -1.05931c-0.00152756,-0.00578346 -0.000870079,-0.00298819 -0.000137795,3.54331e-005l0.000137795 -3.54331e-005z"/>
  <path class="fil1" d="M3.77648 1.96465c-0.0416496,-0.0416496 -0.109185,-0.0416496 -0.150835,0 -0.0416496,0.0416496 -0.0416496,0.109185 0,0.150835 0.165449,0.165449 0.29439,0.35974 0.381724,0.570587 0.0874724,0.211181 0.133756,0.439921 0.133756,0.673925 0,0.211697 -0.0377441,0.41913 -0.10978,0.613028 -0.0722913,0.194575 -0.179043,0.376409 -0.316803,0.536209 -0.0384291,0.0444094 -0.0335748,0.111571 0.0108346,0.15 0.0444094,0.0384291 0.111571,0.0335748 0.15,-0.0108346 0.154374,-0.179071 0.274043,-0.382949 0.355134,-0.601209 0.0813386,-0.218933 0.123953,-0.45148 0.123953,-0.687193 0,-0.261063 -0.0520512,-0.517264 -0.150425,-0.75476 -0.0985118,-0.237823 -0.242945,-0.455972 -0.427559,-0.640587z"/>
  <path class="fil1" d="M4.12027 1.52458c-0.0416496,-0.0416496 -0.109185,-0.0416496 -0.150835,0 -0.0416496,0.0416496 -0.0416496,0.109185 0,0.150835 0.22613,0.22613 0.402457,0.491913 0.522008,0.780535 0.119685,0.288953 0.183016,0.601752 0.183016,0.921571 0,0.289252 -0.0516693,0.572953 -0.150295,0.838409 -0.098878,0.266138 -0.244882,0.514827 -0.433276,0.733366 -0.0384291,0.0444094 -0.0335748,0.111571 0.0108346,0.15 0.0444094,0.0384291 0.111571,0.0335748 0.15,-0.0108346 0.205008,-0.237811 0.363929,-0.508547 0.471606,-0.798366 0.107925,-0.290488 0.164469,-0.599307 0.164469,-0.912575 0,-0.346878 -0.0690984,-0.687134 -0.199685,-1.00241 -0.130728,-0.315598 -0.322543,-0.605236 -0.567843,-0.850535z"/>
  <path class="fil1" d="M4.46407 1.08451c-0.0416496,-0.0416496 -0.109185,-0.0416496 -0.150835,0 -0.0416496,0.0416496 -0.0416496,0.109185 0,0.150835 0.286807,0.286811 0.51052,0.624083 0.662283,0.99048 0.151902,0.366728 0.232276,0.763583 0.232276,1.16922 0,0.366811 -0.0655984,0.726776 -0.190811,1.0638 -0.125465,0.337693 -0.310717,0.653244 -0.549748,0.930524 -0.0384291,0.0444094 -0.0335748,0.111571 0.0108346,0.15 0.0444094,0.0384291 0.111571,0.0335748 0.15,-0.0108346 0.255646,-0.296551 0.453815,-0.634146 0.588079,-0.995524 0.134516,-0.362059 0.204984,-0.747138 0.204984,-1.13796 0,-0.432693 -0.0861417,-0.857008 -0.248945,-1.25005 -0.162937,-0.393374 -0.402146,-0.754504 -0.708118,-1.06048z"/>
  <rect class="fil2" width="6.82666" height="6.82666"/>
 </g>
</svg>
